<svg xmlns="http://www.w3.org/2000/svg" viewBox="0 0 200 200" width="200" height="200">
<g fill="#eee" stroke="#000" stroke-width="5" stroke-linecap="round">
<path d="m86.478 202.93c-1.3668-0.49534-3.5031-1.1321-5.0156-2.0352-1.8221-1.088-4.8587-4.2763-5.5229-5.1777-3.0729-4.1703-3.797-9.3922-3.797-14.497 0-0.92047-0.15132-1.8535 0-2.7614 0.17439-1.0464 0.3549-2.1002 0.69036-3.1066 0.2771-0.8313 0.64366-1.6325 1.0355-2.4162 0.07277-0.14554 0.34518-0.18246 0.34518-0.34518 0-0.11506-0.24719 0.0603-0.34518 0-1.4133-0.8697-2.9688-1.588-4.1421-2.7614-2.771-2.771-5.8017-5.4897-7.5939-8.9746-2.4298-4.7245-3.6893-9.9996-4.8325-15.188-4.4368-20.136-4.1421-18.459-4.1421-31.066 0-17.653 0.40953-5.7558-0.69036-18.294-0.38325-4.3691-0.71547-8.7426-1.0355-13.117-0.02519-0.34426 0-0.69036 0-1.0355 0-0.11506-0.11506-0.34518 0-0.34518 0.16272 0 0.23572 0.22478 0.34518 0.34518 1.0413 1.1454 2.1778 2.2134 3.1066 3.4518 3.9083 5.2111 7.6872 10.52 11.391 15.878 4.2099 6.0908 7.8866 12.538 12.081 18.64 1.8643 2.7117 4.3283 5.0308 5.868 7.9391 1.0059 1.9 1.2385 3.7563 2.4162 5.5228 0.10642 0.15963 2.1843-1.95 2.4162-2.0711 2.1446-1.119 4.2718-2.3172 6.5584-3.1066 17.426-6.0161 17.76-6.4013 31.411-8.2843 0.311-0.0429 2.0601 0.16711 2.4162 0.34518 1.4365 0.71828-0.36901-0.0238 0.34517 0.69036 0.0814 0.0814 0.26382-0.0814 0.34518 0 0.0814 0.0814-0.11506 0.34518 0 0.34518s0.01-0.23052 0-0.34518c-0.2206-2.6472-0.17923-5.3324-0.69035-7.9391-0.6447-3.288-2.1621-6.3685-2.7614-9.665-0.32932-1.8113 0-3.6819 0-5.5229v-6.5584c0-8.9746-0.0823-17.95 0-26.924 0.0327-3.5685 0.19016-7.1352 0.34518-10.701 0.23011-5.2925-1.3764-5.1777 0.69035-5.1777 0.11506 0 0.26382-0.08136 0.34518 0 0.9797 0.9797 1.7569 2.1523 2.7614 3.1066 8.0339 7.6322 2.443-1.0767 12.081 15.188 1.2865 2.1709 2.0903 4.5938 3.1066 6.9036 1.5151 3.4434 3.1481 6.8399 4.4873 10.355 0.50665 1.33 0.56538 2.7988 1.0355 4.1421 0.84276 2.4079 2.1061 3.3217 3.1066 5.5229 0.67006 1.4741 0.29081 4.8692 0.69035 5.868 1.1066 2.7665 2.8156 5.286 4.1421 7.9391 4.1676 0.3972 0.83376 2.5663 1.3807 3.797 0.92313 2.077 1.3613 2.0225 2.0711 3.797 0.27026 0.67565 0.36492 1.4202 0.69035 2.0711 0.44496 0.8899-0.27141-0.98541 0-2.0711 0.0279-0.11163 0.23128-0.0163 0.34518 0 0.69285 0.099 1.3932 0.17088 2.0711 0.34518 3.3523 0.86202 6.6723 1.8451 10.01 2.7614 2.5302 0.69455 5.1372 1.1498 7.5939 2.0711 2.1681 0.81304 4.1149 2.1274 6.2132 3.1066 4.5789 2.1368 9.6649 4.027 13.117 7.9391 1.9635 2.2253 3.4089 5.1348 5.5229 7.2487 0,0 15.21244,35.36122 9.29814,55.53942 -5.97729,6.43585 -10.65134,8.40387 -14.83338,10.37189" />
<path d="m108.04 183.98c-1.3807-4.6024-6.1608-9.4467-4.1421-13.807 1.9123-4.1306 8.3914-3.5946 12.772-4.8325 1.0026-0.28335 2.069 0.25085 3.1066 0.34518 0.22918 0.0208 0.54661-0.17969 0.69036 0 0.38707 0.48384 0.46024 1.1506 0.69036 1.7259 0.46024 1.1506 0.96391 2.2848 1.3807 3.4518 1.6392 4.5899 1.4902 5.9353-1.0355 10.355-0.16147 0.28256-0.39928 0.54482-0.69036 0.69036-0.42432 0.21216-0.93652 0.17861-1.3807 0.34518-0.4818 0.18067-0.87933 0.57465-1.3807 0.69036-3.103 0.71607-6.8643 0.79354-10.01 1.0355z" />
<path d="m143.25 173.28c0.74233 1.7912-4.3618 4.0724-5.1777 5.5229-0.76796 1.3653-2.8752 5.0639-1.0355 6.9036 0.0814 0.0814 0.23031 7e-3 0.34518 0 1.8414-0.10831 3.6866-0.1703 5.5228-0.34518 1.1398-0.10854 4.0567-0.30244 4.8325-0.69035 1.6577-0.82885 3.5208-2.1861 5.1777-3.1066 1.0516-0.58424 1.8546-0.60253 2.4162-1.7259 0.10292-0.20582-0.0728-0.47205 0-0.69036 0.11227-0.3368 0.56741-0.24591 0.34518-0.69035-0.23718-0.47436-3.0874-0.68074-3.797-1.0355-0.54283-0.27141-1.2214-1.0024-1.7259-1.3807-1.0495-0.78713-2.179-1.4886-3.1066-2.4162-0.18193-0.18192-0.13111-0.54764-0.34518-0.69035-0.19147-0.12765-0.47205 0.0728-0.69036 0-0.15437-0.0515-0.19964-0.27241-0.34518-0.34518-0.74921-0.37461-1.6385 0.37926-2.4162 0.69035z" />
<path d="m162.23 144.63c-1.0355 0-2.0762-0.10304-3.1066 0-0.44774 0.0448-5.9972 0.77649-6.9036 1.3807-0.48894 0.32596-0.34518 2.941-0.34518 3.4518 0 1.8738-0.26584 4.0072 0 5.868 0.15351 1.0746 1.1238 1.8583 1.7259 2.7614 0.31912 0.47867 0.4631 1.3235 1.0355 1.3807 1.0304 0.10304 2.0711 0 3.1066 0 4.0665 0 4.3916 0.5656 7.5939-1.0355 0.51456-0.25729 0.85938-0.79225 1.3807-1.0355 1.2204-0.56951 2.5287-0.92776 3.797-1.3807 0.34265-0.12238 0.77825-0.0879 1.0355-0.34518 0.16272-0.16272-0.0728-0.47205 0-0.69036 0.65771-1.9731 0.0659 2.0867 0.69036-1.0355 0.4611-2.3055-2.1366-3.5174-3.4518-4.8325-3.5086-3.5086-1.239-2.1232-6.5584-4.4873z" />
</g>
</svg>
