<svg xmlns="http://www.w3.org/2000/svg" viewBox="-350 -200 450 450" width="2400" height="2400">
<g stroke="#222" stroke-linecap="round" stroke-linejoin="round" stroke-width=".3">
<rect x="-350" y="-200" width="450" height="450" fill="#ccb" stroke="none" />
<g fill="#779">
<path d="m18 37 a25 23 0 0 1 44 0" />
<path d="m30 28 c-3 -4 -11 -9 -13 -9 -1 2 -1 13 0 20" />
<path d="m50 28 c3 -4 11 -9 13 -9 1 2 1 13 0 20" />
<path d="m18 36 a25 22 0 1 0 44 0" />
</g>
<path d="m38 54 2 -2 2 2" fill="none" />
<g fill="#fff">
<ellipse cx="30" cy="44" rx="5" ry="6" />
<ellipse cx="50" cy="44" rx="5" ry="6" />
</g>
<rect x="-350" y="60" width="450" height="190" fill="#aa9" stroke="none" />
<path d="m-350 60 h450" fill="none" stroke-linecap="butt" />
<g fill="#ccd">
<ellipse cx="17" cy="58" rx="6" ry="5" />
<ellipse cx="63" cy="58" rx="6" ry="5" />
</g>
</g>
<g fill="none" stroke="#000" stroke-linecap="square" stroke-width=".8" transform="translate(6.25e-6)">
<path d="m-273.5 18.98 c-0.4403 3.718 -0.9296 7.73 1.076 9.247 s5.235 -1.468 5.969 -2.104" />
<path d="m-261 19.96 c0.8806 2.25 1.027 4.746 1.027 5.871" />
<path d="m-252.3 20.35 c4.354 -1.81 8.611 -2.202 9.834 0.4403 1.223 2.642 -2.642 5.969 -4.941 6.947" />
<path d="m-230.1 17.71 c-2.006 4.795 -3.767 9.785 0.4403 10.52 4.207 0.7339 4.305 -0.5871 5.088 -1.419" />
<path d="m-232.7 20.16 c1.564 0.2787 4.892 -0.4892 5.479 -0.636" />
<path d="m-234.5 24.95 c3.376 -0.3425 6.213 -1.321 8.415 -2.055" />
<path d="m-212.1 20.4 c0.0978 4.403 -3.376 8.17 -5.626 6.996 -2.25 -1.174 0.3914 -7.339 4.99 -7.045 4.599 0.2935 6.115 2.935 3.033 8.464" />
<path d="m-201.1 20.84 c5.577 -2.348 11.5 -3.327 12.13 -1.859 0.8209 1.894 -3.571 5.137 -4.403 5.479" />
<path d="m-195.8 23.73 c0.4892 1.468 1.174 5.333 1.076 6.898" />
<path d="m-172 17.27 c-2.055 3.082 -6.654 6.36 -9.247 7.436" />
<path d="m-174.6 22.41 c0 1.419 0.2446 4.648 0.9785 5.92" />
<path d="m-162.1 19.13 c6.702 -0.9295 8.464 -1.076 9.295 0.3425 0.8317 1.419 -0.3425 6.262 -0.8317 6.8" />
<path d="m-161.6 26.91 c1.712 0.4403 6.875 0.2553 7.828 0" />
<path d="m-143.8 18.2 c1.37 0.4403 4.794 0.3914 5.43 0.4403" />
<path d="m-141.7 27.35 c4.794 0.7828 11.15 -5.088 11.84 -6.409" />
<path d="m-120.7 16.39 c-0.3425 2.642 -0.3914 9.198 -0.3425 9.883" />
<path d="m-116.3 20.11 c1.712 -0.8317 6.996 -0.8317 8.611 -1.663" />
<path d="m-113.5 16.39 c-0.2496 3.102 1.076 7.485 0.8317 8.611 -0.2446 1.125 -3.18 2.348 -4.012 0.5871 -0.8317 -1.761 0.0978 -2.642 0.9785 -3.033 0.8806 -0.3914 7.192 0.4403 7.828 0.3425" />
<path d="m-101.6 17.86 c3.033 0.2935 8.513 -1.614 9.638 -0.4403 1.125 1.174 0.5382 2.642 0.4892 3.18" />
<path d="m-100.6 26.17 c2.984 2.055 8.366 1.517 10.42 -0.2935" />
<path d="m-80.33 14.92 c0.8806 1.859 0.3914 6.654 0.2935 10.57" />
<path d="m-82.19 17.76 c0.1468 0.7828 -0.09784 4.941 0.09786 5.137 0.1957 0.1957 3.865 -5.235 6.751 -4.795 2.886 0.4403 2.397 3.669 3.865 4.158 1.468 0.4892 2.104 -1.272 2.348 -1.614" />
<path d="m-63.5 17.51 c1.272 0.1957 7.779 -0.3914 7.975 -0.1957 0.1957 0.1957 -3.955 5.232 -2.104 7.485 1.125 1.37 4.061 -0.7338 4.207 -1.174" />
<path d="m-53.38 15.31 c0.1957 0.636 0.09786 2.495 0.2936 2.691" />
<path d="m-49.51 14.63 c0.2446 0.7828 0.1468 2.593 -0.1957 3.229" />
<path d="m-42.17 17.71 c1.223 0.3914 10.03 -1.027 10.22 -1.761" />
<path d="m-35.18 14.48 c0.2935 1.125 0.5381 5.333 -0.7828 6.898 -1.321 1.566 -4.599 1.761 -4.354 0.04892 0.2446 -1.712 3.669 -1.761 4.256 -0.5382 0.5871 1.223 0.4403 4.746 -1.174 5.479" />
<path d="m-7.927 19.67 c4.012 5.479 6.556 9.491 5.871 10.37 -0.6849 0.8806 -9.198 2.446 -9.785 2.446" />
<path d="m-6.557 27.69 c-0.8806 -0.3914 -10.57 -7.926 -16.24 -6.751" />
</g>
</svg>
