<svg xmlns="http://www.w3.org/2000/svg" viewBox="0 0 100 100" width="800" height="800">
<defs>
<linearGradient id="table-edge" x1="5" x2="95" y1="70" y2="70" gradientUnits="userSpaceOnUse">
<stop stop-color="#bfc" offset="0" />
<stop stop-color="#586" offset="0.2" />
<stop stop-color="#364" offset="0.5" />
<stop stop-color="#586" offset="0.8" />
<stop stop-color="#bfc" offset="1" />
</linearGradient>
<radialGradient id="table-top" cx="50" cy="30" fx="50" fy="20" r="44" gradientTransform="matrix(1 0 0 0.35 0 60)" gradientUnits="userSpaceOnUse">
<stop stop-color="#7b8" offset="0" />
<stop stop-color="#8c9" offset="0.3" />
<stop stop-color="#bfc" offset="1" />
</radialGradient>
</defs>
<circle cx="50" cy="50" r="50" fill="#bfc" />
<path d="m 50 4 v 60 m -30 -30 h 60" fill="none" stroke="#9ea" stroke-width="16" />
<g stroke="#222" stroke-linecap="round" stroke-linejoin="round" stroke-width="0.3">
<g fill="#779">
<path d="m28 47 a25 23 0 0 1 44 0" />
<path d="m40 38 c-3 -4 -11 -9 -13 -9 -1 2 -1 13 0 20" />
<path d="m60 38 c3 -4 11 -9 13 -9 1 2 1 13 0 20" />
<path d="m28 46 a25 22 0 1 0 44 0" />
</g>
<path d="m48 64 2 -2 2 2" fill="none" />
<g fill="#fff">
<ellipse cx="40" cy="54" rx="5" ry="6" />
<ellipse cx="60" cy="54" rx="5" ry="6" />
</g>
<path d="m6 70 h88 c-20 38 -68 38 -88 0 z" fill="url(#table-top)" stroke="none" />
<path d="m5 70 h90" fill="none" stroke="url(#table-edge)" />
<g fill="#ccd">
<ellipse cx="27" cy="68" rx="6" ry="5" />
<ellipse cx="73" cy="68" rx="6" ry="5" />
</g>
</g>
<g fill="#060">
<path d="m31.008 25.142 q-1.494 0 -2.484 -0.594 t-1.476 -1.584 -0.486 -2.178 q0 -0.252 0.018 -0.504 0.036 -0.27 0.072 -0.54 -0.612 -0.468 -0.972 -1.152 -0.342 -0.684 -0.342 -1.584 0 -1.296 0.738 -2.358 t1.926 -1.8 q-0.018 -0.126 -0.036 -0.234 0 -0.126 0 -0.252 0 -0.072 0 -0.126 0 -0.072 0.018 -0.144 0.144 -1.242 0.756 -2.214 0.63 -0.99 1.89 -1.548 1.278 -0.558 3.348 -0.558 0.36 0 0.756 0.018 t0.81 0.054 q0.936 0.09 2.214 0.468 1.296 0.378 2.754 0.864 1.476 0.486 2.934 0.9 0.432 -0.558 0.882 -0.936 0.468 -0.378 0.972 -0.54 h0.054 q0.126 0 0.126 0.126 0 0.108 -0.09 0.126 -0.45 0.144 -0.864 0.486 -0.396 0.324 -0.792 0.81 1.062 0.288 2.052 0.468 t1.818 0.18 q0.63 0 1.134 -0.108 0.522 -0.126 0.918 -0.396 0.9 -0.612 1.062 -1.818 0 -0.126 0.126 -0.126 0.054 0 0.108 0.054 0.054 0.036 0.036 0.108 -0.072 0.648 -0.378 1.152 -0.288 0.486 -0.738 0.81 -0.612 0.45 -1.44 0.648 t-1.8 0.198 q-0.774 0 -1.656 -0.108 -0.864 -0.126 -1.782 -0.306 -0.144 0.234 -0.306 0.486 t-0.306 0.522 q-0.45 0.81 -0.774 1.926 -0.324 1.098 -0.666 2.358 -0.342 1.242 -0.81 2.52 -0.468 1.26 -1.188 2.412 -0.702 1.152 -1.782 2.052 -1.08 0.918 -2.646 1.44 -1.548 0.522 -3.708 0.522 z m0 -0.27 q1.458 0 2.646 -0.54 1.206 -0.522 2.178 -1.44 0.99 -0.918 1.8 -2.106 0.828 -1.188 1.512 -2.52 0.702 -1.332 1.314 -2.664 0.63 -1.332 1.224 -2.556 0.612 -1.224 1.224 -2.196 -1.512 -0.324 -3.078 -0.756 -1.566 -0.45 -3.006 -0.828 -0.72 -0.198 -1.44 -0.27 -0.72 -0.09 -1.404 -0.09 -1.512 0 -2.79 0.396 -1.26 0.378 -2.052 1.098 -0.792 0.702 -0.882 1.674 0 0.072 -0.018 0.126 0 0.054 0 0.126 t0 0.18 q0.018 0.09 0.036 0.18 0.81 -0.468 1.746 -0.828 0.954 -0.378 1.962 -0.378 h0.018 q0.144 0 0.144 0.144 0 0.108 -0.126 0.126 -1.008 0.126 -1.962 0.432 -0.936 0.306 -1.728 0.774 0.108 0.504 0.396 1.008 0.306 0.486 0.774 0.864 0.702 -0.612 1.548 -1.098 0.864 -0.504 1.872 -0.846 1.35 -0.45 2.412 -0.45 1.548 0 2.304 0.81 0.774 0.792 0.774 1.926 0 0.918 -0.504 1.908 -0.486 0.99 -1.494 1.836 -0.99 0.846 -2.466 1.386 -1.476 0.522 -3.456 0.522 -0.882 0 -1.71 -0.162 -0.81 -0.18 -1.494 -0.522 -0.018 0.162 -0.036 0.324 0 0.162 0 0.324 0 1.116 0.396 2.052 0.414 0.918 1.242 1.476 0.846 0.558 2.124 0.558 z m-0.234 -4.302 q1.746 0 3.06 -0.504 1.332 -0.504 2.232 -1.296 0.9 -0.81 1.35 -1.728 0.45 -0.936 0.45 -1.8 0 -1.044 -0.666 -1.764 t-2.052 -0.72 q-0.936 0 -2.142 0.396 -0.936 0.306 -1.746 0.81 -0.792 0.486 -1.44 1.098 0.414 0.252 0.936 0.414 0.522 0.144 1.152 0.144 0.36 0 0.756 -0.036 0.396 -0.054 0.828 -0.18 h0.054 q0.108 0 0.108 0.126 0 0.108 -0.09 0.126 -0.45 0.126 -0.864 0.18 t-0.792 0.054 q-0.702 0 -1.278 -0.162 -0.558 -0.18 -1.008 -0.468 -0.954 0.99 -1.53 2.178 -0.576 1.17 -0.756 2.34 0.702 0.396 1.584 0.594 0.9 0.198 1.854 0.198 z m-4.032 -1.206 q0.252 -1.134 0.882 -2.268 0.648 -1.134 1.656 -2.07 -0.468 -0.396 -0.774 -0.9 t-0.45 -1.008 q-1.098 0.72 -1.782 1.71 -0.666 0.99 -0.666 2.16 0 0.756 0.306 1.35 t0.828 1.026 z m17.802 3.726 q-0.756 0 -0.756 -0.846 0 -0.324 0.126 -0.774 t0.396 -0.99 q0.144 -0.324 0.396 -0.774 0.252 -0.468 0.45 -0.918 0.216 -0.45 0.216 -0.72 t-0.288 -0.27 q-0.126 0 -0.324 0.072 -0.198 0.054 -0.54 0.144 -0.144 0.36 -0.468 1.008 -0.306 0.63 -0.684 1.296 t-0.72 1.152 q0 0 -0.018 0.018 0 0 -0.036 0 t-0.108 -0.018 q-0.054 -0.036 -0.036 -0.054 0.288 -0.414 0.594 -0.954 0.306 -0.558 0.576 -1.098 0.288 -0.54 0.468 -0.918 0.198 -0.396 0.216 -0.468 -0.27 -0.09 -0.432 -0.414 -0.144 -0.342 -0.144 -0.684 0 -0.306 0.144 -0.522 t0.432 -0.216 q0.216 0 0.288 0.234 0.09 0.216 0.09 0.522 0 0.396 -0.09 0.792 0 0 0.198 -0.036 t0.468 -0.054 q0.27 -0.036 0.468 -0.036 0.594 0 0.594 0.576 0 0.36 -0.198 0.936 -0.198 0.558 -0.504 1.296 -0.612 1.458 -0.612 2.052 0 0.36 0.234 0.36 0.288 0 0.81 -0.468 t0.954 -1.17 q0.45 -0.72 1.098 -1.926 0.018 -0.036 0.054 -0.036 0.054 0 0.09 0.054 0.054 0.036 0.036 0.072 -0.99 1.872 -1.728 2.826 t-1.71 0.954 z m3.996 0 q-0.702 0 -0.702 -0.756 0 -0.63 0.558 -1.836 0.162 -0.324 0.36 -0.774 0.216 -0.45 0.36 -0.864 0.162 -0.432 0.162 -0.702 0 -0.252 -0.18 -0.252 -0.216 0 -0.432 0.27 t-0.396 0.612 q-0.162 0.324 -0.27 0.522 -0.27 0.522 -0.612 1.134 t-0.684 1.08 h-0.018 q-0.036 0 -0.108 -0.036 -0.054 -0.054 -0.036 -0.072 0.342 -0.468 0.666 -1.08 0.342 -0.612 0.576 -1.116 0.198 -0.378 0.414 -0.774 0.234 -0.414 0.54 -0.684 0.306 -0.288 0.702 -0.288 0.666 0 0.666 0.522 0 0.342 -0.216 0.918 t-0.576 1.458 q-0.324 0.756 -0.486 1.278 -0.144 0.504 -0.144 0.792 0 0.342 0.234 0.342 0.252 0 0.81 -0.468 0.486 -0.432 0.936 -1.062 0.45 -0.648 0.972 -1.746 0.144 -0.288 0.288 -0.72 0.162 -0.45 0.27 -0.792 0.126 -0.342 0.126 -0.342 0.306 -0.072 0.684 -0.18 0.378 -0.126 0.666 -0.252 -0.18 0.18 -0.522 0.81 -0.324 0.63 -0.684 1.44 -0.342 0.792 -0.594 1.548 -0.306 0.864 -0.306 1.386 0 0.432 0.27 0.432 0.126 0 0.306 -0.108 0.198 -0.108 0.468 -0.342 0.234 -0.198 0.432 -0.468 0.216 -0.27 0.414 -0.558 0.27 -0.396 0.558 -0.918 0.306 -0.522 0.666 -1.224 0.036 -0.054 0.054 -0.054 0.054 0 0.09 0.054 0.054 0.036 0.036 0.072 -0.972 1.908 -1.71 2.862 -0.738 0.936 -1.602 0.936 -0.342 0 -0.504 -0.234 -0.144 -0.234 -0.144 -0.63 0 -0.306 0.072 -0.684 t0.198 -0.774 q-0.666 1.152 -1.278 1.746 -0.612 0.576 -1.35 0.576 z m6.732 0.09 q-1.152 0 -1.584 -0.414 -0.414 -0.414 -0.414 -0.918 0 -0.468 0.234 -0.846 0.234 -0.396 0.468 -0.468 0.162 -0.288 0.342 -0.63 0.198 -0.342 0.36 -0.666 0.324 -0.648 0.666 -1.224 0.342 -0.594 0.738 -0.954 0.414 -0.36 0.864 -0.36 0.216 0 0.45 0.09 0.234 0.108 0.234 0.216 0 0.072 -0.072 0.108 t-0.162 0.018 q-0.324 -0.09 -0.594 0.18 t-0.27 0.738 q0 0.072 0 0.162 0.018 0.072 0.036 0.162 0.108 0.432 0.216 0.99 0.126 0.558 0.126 1.134 0 0.216 -0.018 0.432 t-0.09 0.414 q-0.234 0.666 -0.648 1.062 -0.396 0.378 -0.972 0.558 0.432 0.018 0.9 -0.072 0.486 -0.108 0.828 -0.306 0.594 -0.342 1.044 -0.936 0.468 -0.594 0.828 -1.242 0.36 -0.666 0.648 -1.206 0.018 -0.072 0.108 -0.072 0.054 0 0.09 0.054 0.036 0.036 0 0.09 -0.36 0.666 -0.738 1.35 -0.378 0.666 -0.846 1.242 -0.468 0.558 -1.116 0.918 -0.702 0.396 -1.656 0.396 z m-0.738 -0.306 q0.36 0 0.738 -0.234 t0.54 -0.684 q0.198 -0.558 0.234 -1.242 0.054 -0.702 0.054 -1.314 t0.018 -0.936 q0.036 -0.504 0.27 -0.936 0.234 -0.45 0.792 -0.54 -0.126 -0.072 -0.252 -0.072 -0.306 0 -0.63 0.27 t-0.486 0.486 q-0.252 0.342 -0.486 0.81 t-0.522 0.99 l-0.54 0.972 q0.054 -0.018 0.162 -0.018 0.288 0 0.36 0.162 0.09 0.162 0.054 0.234 -0.054 -0.018 -0.108 -0.018 -0.036 -0.018 -0.072 -0.018 -0.306 0 -0.54 0.252 -0.216 0.252 -0.306 0.558 -0.036 0.126 -0.054 0.252 -0.018 0.108 -0.018 0.198 0 0.432 0.234 0.63 t0.558 0.198 z m4.698 0.198 q-0.414 0 -0.594 -0.306 t-0.18 -0.72 q0 -0.558 0.234 -1.116 0.378 -0.99 0.702 -1.71 0.342 -0.72 0.684 -1.386 h-0.486 q-0.072 0 -0.072 -0.072 0 -0.054 0.054 -0.126 t0.126 -0.072 h0.522 l1.296 -2.592 q0.306 -0.072 0.648 -0.162 0.36 -0.108 0.648 -0.234 -0.288 0.486 -0.792 1.278 -0.504 0.774 -1.026 1.71 h1.278 q0.072 0 0.072 0.072 0 0.054 -0.054 0.126 t-0.126 0.072 h-1.332 q-0.558 0.99 -1.008 2.052 -0.432 1.062 -0.576 1.998 -0.018 0.072 -0.018 0.162 0 0.072 0 0.126 0 0.486 0.324 0.486 0.198 0 0.45 -0.162 0.252 -0.18 0.486 -0.414 0.576 -0.576 0.99 -1.278 0.432 -0.702 0.792 -1.422 0.036 -0.036 0.054 -0.036 0.126 0 0.126 0.144 -0.018 0 -0.108 0.162 -0.072 0.162 -0.09 0.18 -0.324 0.63 -0.666 1.206 t-0.828 1.098 q-0.27 0.288 -0.684 0.612 t-0.846 0.324 z m3.924 0.108 q-0.774 0 -1.098 -0.522 -0.324 -0.54 -0.324 -1.224 0 -0.414 0.09 -0.81 t0.216 -0.738 q0.198 -0.486 0.558 -1.026 0.378 -0.558 0.9 -0.954 t1.134 -0.396 q0.504 0 0.702 0.288 0.198 0.27 0.198 0.684 0 0.072 0 0.144 0 0.054 -0.018 0.144 -0.054 0.486 -0.378 1.008 t-0.81 0.882 q-0.486 0.342 -1.044 0.342 -0.324 0 -0.576 -0.18 -0.162 0.612 -0.162 1.116 0 0.414 0.144 0.684 0.162 0.27 0.486 0.27 0.378 0 0.9 -0.324 0.54 -0.342 1.152 -1.152 0.63 -0.81 1.278 -2.214 0 -0.018 0.036 -0.018 0.054 0 0.108 0.054 0.072 0.036 0.036 0.072 -0.882 1.998 -1.872 2.934 -0.972 0.936 -1.656 0.936 z m0.036 -2.466 q0.396 0 0.774 -0.288 0.378 -0.306 0.684 -0.756 0.306 -0.468 0.486 -0.936 0.072 -0.198 0.072 -0.45 0 -0.234 -0.09 -0.396 -0.072 -0.18 -0.27 -0.18 -0.324 0 -0.702 0.414 -0.378 0.396 -0.702 0.954 -0.324 0.54 -0.486 0.99 -0.054 0.126 -0.108 0.27 -0.036 0.126 -0.072 0.27 0.216 0.108 0.414 0.108 z m3.42 2.376 q-0.594 0 -0.828 -0.342 -0.216 -0.342 -0.216 -0.828 0 -0.522 0.162 -1.098 0.18 -0.576 0.36 -0.936 0.63 -1.314 1.764 -1.944 1.152 -0.63 2.358 -0.54 0.414 -0.846 0.864 -1.764 0.468 -0.936 0.864 -1.764 0.414 -0.846 0.702 -1.44 0.306 -0.612 0.396 -0.81 0.306 -0.072 0.666 -0.162 0.36 -0.108 0.648 -0.234 -0.18 0.306 -0.576 0.954 -0.378 0.648 -0.882 1.53 -0.486 0.864 -1.026 1.854 t-1.044 1.998 v0.036 q0 0.072 -0.09 0.126 -0.45 0.918 -0.828 1.764 -0.36 0.846 -0.594 1.548 -0.216 0.684 -0.216 1.134 0 0.504 0.342 0.504 0.198 0 0.45 -0.162 t0.486 -0.396 q0.576 -0.576 0.99 -1.296 0.432 -0.72 0.81 -1.44 0 -0.036 0.036 -0.036 0.126 0 0.126 0.144 0 0 -0.09 0.162 t-0.108 0.18 q-0.324 0.63 -0.666 1.206 t-0.828 1.098 q-0.27 0.288 -0.702 0.612 -0.414 0.324 -0.828 0.324 t-0.576 -0.324 q-0.144 -0.324 -0.144 -0.72 0 -0.252 0.036 -0.486 t0.09 -0.414 q-0.126 0.324 -0.45 0.792 -0.306 0.468 -0.702 0.828 -0.378 0.342 -0.756 0.342 z m0.216 -0.27 q0.252 0 0.558 -0.342 0.324 -0.342 0.63 -0.828 0.324 -0.504 0.576 -0.972 0.252 -0.486 0.378 -0.738 l1.134 -2.304 q-0.882 0.018 -1.584 0.486 -0.684 0.468 -1.17 1.188 -0.486 0.702 -0.738 1.44 t-0.252 1.278 q0 0.36 0.108 0.576 0.126 0.216 0.36 0.216 z" aria-label="Trusted" />
<path d="m23.927 83.09 c0.792 0 1.332 -0.702 1.332 -1.68 0 -1.014 -0.534 -1.632 -1.272 -1.632 -0.36 0 -0.72 0.144 -1.026 0.474 v-1.116 l0.018 -0.936 -0.09 -0.054 -1.014 0.192 v0.162 l0.51 0.03 v3.09 c0 0.33 -6e-3 0.828 -0.012 1.17 l-0.48 0.042 v0.168 l0.99 0.066 0.078 -0.456 c0.282 0.336 0.624 0.48 0.966 0.48 z m-0.954 -2.67 c0.294 -0.27 0.528 -0.336 0.762 -0.336 0.522 0 0.9 0.42 0.9 1.32 0 1.026 -0.426 1.374 -0.912 1.374 -0.264 0 -0.498 -0.096 -0.75 -0.336 z m4.644 -0.384 0.576 0.054 -0.42 1.236 -0.432 1.206 -0.894 -2.442 0.534 -0.054 v-0.168 h-1.554 v0.168 l0.378 0.042 1.272 3.138 -0.042 0.108 c-0.186 0.48 -0.414 0.822 -0.696 1.008 l-0.078 -0.084 c-0.138 -0.15 -0.288 -0.246 -0.456 -0.246 -0.18 0 -0.348 0.084 -0.384 0.27 0.024 0.222 0.288 0.354 0.57 0.354 0.486 0 0.882 -0.378 1.248 -1.356 l1.188 -3.186 0.408 -0.048 v-0.168 h-1.218 z m6.606 2.64 c0.654 0 1.458 -0.636 1.458 -1.86 0 -1.29 -0.846 -2.154 -2.112 -2.154 -1.686 0 -2.934 1.362 -2.934 3.048 0 1.5 0.99 2.304 2.316 2.304 0.51 0 0.972 -0.12 1.374 -0.336 l-0.078 -0.138 c-0.354 0.186 -0.75 0.282 -1.242 0.282 -1.17 0 -2.094 -0.78 -2.094 -2.154 0 -1.524 1.11 -2.808 2.61 -2.808 1.122 0 1.932 0.75 1.932 1.926 0 1.086 -0.618 1.686 -1.116 1.686 -0.3 0 -0.402 -0.168 -0.318 -0.612 l0.354 -1.908 -0.084 -0.054 -0.348 0.246 c-0.132 -0.186 -0.288 -0.276 -0.498 -0.276 -0.78 0 -1.506 0.996 -1.506 1.926 0 0.606 0.306 0.882 0.72 0.882 0.33 0 0.642 -0.186 0.906 -0.558 0.03 0.366 0.258 0.558 0.66 0.558 z m-0.678 -0.72 c-0.288 0.33 -0.48 0.402 -0.66 0.402 -0.282 0 -0.474 -0.222 -0.474 -0.666 0 -0.75 0.492 -1.572 1.032 -1.572 0.168 0 0.3 0.06 0.402 0.228 z m4.38 -1.908 0.582 0.066 -0.672 0.666 -0.636 0.636 v-2.28 l0.018 -0.936 -0.09 -0.054 -1.026 0.192 v0.162 l0.51 0.03 v3.09 l-0.012 1.164 -0.492 0.048 v0.168 h1.566 v-0.168 l-0.462 -0.048 -0.012 -1.122 0.42 -0.408 0.984 1.746 h0.972 v-0.168 l-0.456 -0.042 -1.092 -1.926 0.798 -0.768 0.588 -0.048 v-0.18 h-1.488 z m3.354 3.042 c0.84 0 1.542 -0.576 1.542 -1.656 s-0.732 -1.656 -1.542 -1.656 c-0.804 0 -1.53 0.582 -1.53 1.656 s0.69 1.656 1.53 1.656 z m0 -0.192 c-0.564 0 -0.9 -0.504 -0.9 -1.458 0 -0.96 0.336 -1.464 0.9 -1.464 s0.906 0.504 0.906 1.464 c0 0.954 -0.342 1.458 -0.906 1.458 z m4.494 0.162 0.996 -0.06 v-0.168 l-0.438 -0.042 v-2.088 l0.024 -0.81 -0.06 -0.066 -1.008 0.12 v0.15 l0.474 0.06 -0.012 2.094 c-0.252 0.294 -0.558 0.468 -0.876 0.468 -0.372 0 -0.582 -0.204 -0.582 -0.816 v-1.2 l0.03 -0.81 -0.066 -0.066 -1.014 0.108 v0.156 l0.48 0.072 -0.018 1.722 c-6e-3 0.894 0.324 1.206 0.9 1.206 0.468 0 0.852 -0.252 1.152 -0.636 z m4.002 -0.06 h1.062 v-0.168 l-0.444 -0.048 c-6e-3 -0.33 -0.012 -0.828 -0.012 -1.164 v-0.696 c0 -0.822 -0.33 -1.146 -0.87 -1.146 -0.414 0 -0.798 0.192 -1.188 0.642 v-1.284 l0.018 -0.936 -0.09 -0.054 -1.014 0.192 v0.162 l0.51 0.03 v3.09 l-0.012 1.164 -0.48 0.048 v0.168 h1.518 v-0.168 l-0.426 -0.048 -0.012 -1.164 v-1.014 c0.36 -0.36 0.684 -0.48 0.93 -0.48 0.33 0 0.534 0.198 0.534 0.762 v0.732 c0 0.336 -6e-3 0.828 -0.012 1.164 l-0.474 0.048 v0.168 z m3.06 0.09 c0.84 0 1.542 -0.576 1.542 -1.656 s-0.732 -1.656 -1.542 -1.656 c-0.804 0 -1.53 0.582 -1.53 1.656 s0.69 1.656 1.53 1.656 z m0 -0.192 c-0.564 0 -0.9 -0.504 -0.9 -1.458 0 -0.96 0.336 -1.464 0.9 -1.464 s0.906 0.504 0.906 1.464 c0 0.954 -0.342 1.458 -0.906 1.458 z m4.494 0.162 0.996 -0.06 v-0.168 l-0.438 -0.042 v-2.088 l0.024 -0.81 -0.06 -0.066 -1.008 0.12 v0.15 l0.474 0.06 -0.012 2.094 c-0.252 0.294 -0.558 0.468 -0.876 0.468 -0.372 0 -0.582 -0.204 -0.582 -0.816 v-1.2 l0.03 -0.81 -0.066 -0.066 -1.014 0.108 v0.156 l0.48 0.072 -0.018 1.722 c-6e-3 0.894 0.324 1.206 0.9 1.206 0.468 0 0.852 -0.252 1.152 -0.636 z m3.258 -3.024 0.576 0.054 -0.42 1.236 -0.432 1.206 -0.894 -2.442 0.534 -0.054 v-0.168 h-1.554 v0.168 l0.378 0.042 1.272 3.138 -0.042 0.108 c-0.186 0.48 -0.414 0.822 -0.696 1.008 l-0.078 -0.084 c-0.138 -0.15 -0.288 -0.246 -0.456 -0.246 -0.18 0 -0.348 0.084 -0.384 0.27 0.024 0.222 0.288 0.354 0.57 0.354 0.486 0 0.882 -0.378 1.248 -1.356 l1.188 -3.186 0.408 -0.048 v-0.168 h-1.218 z m2.904 3.054 c0.84 0 1.542 -0.576 1.542 -1.656 s-0.732 -1.656 -1.542 -1.656 c-0.804 0 -1.53 0.582 -1.53 1.656 s0.69 1.656 1.53 1.656 z m0 -0.192 c-0.564 0 -0.9 -0.504 -0.9 -1.458 0 -0.96 0.336 -1.464 0.9 -1.464 s0.906 0.504 0.906 1.464 c0 0.954 -0.342 1.458 -0.906 1.458 z m4.494 0.162 0.996 -0.06 v-0.168 l-0.438 -0.042 v-2.088 l0.024 -0.81 -0.06 -0.066 -1.008 0.12 v0.15 l0.474 0.06 -0.012 2.094 c-0.252 0.294 -0.558 0.468 -0.876 0.468 -0.372 0 -0.582 -0.204 -0.582 -0.816 v-1.2 l0.03 -0.81 -0.066 -0.066 -1.014 0.108 v0.156 l0.48 0.072 -0.018 1.722 c-6e-3 0.894 0.324 1.206 0.9 1.206 0.468 0 0.852 -0.252 1.152 -0.636 z m3.288 -3.012 0.582 0.066 -0.672 0.666 -0.636 0.636 v-2.28 l0.018 -0.936 -0.09 -0.054 -1.026 0.192 v0.162 l0.51 0.03 v3.09 l-0.012 1.164 -0.492 0.048 v0.168 h1.566 v-0.168 l-0.462 -0.048 -0.012 -1.122 0.42 -0.408 0.984 1.746 h0.972 v-0.168 l-0.456 -0.042 -1.092 -1.926 0.798 -0.768 0.588 -0.048 v-0.18 h-1.488 z m4.422 3.036 c0.264 0 0.456 -0.102 0.588 -0.336 l-0.096 -0.084 c-0.102 0.12 -0.174 0.162 -0.27 0.162 -0.156 0 -0.24 -0.102 -0.24 -0.45 v-1.506 c0 -0.768 -0.336 -1.092 -1.062 -1.092 s-1.188 0.306 -1.29 0.81 c0.03 0.15 0.138 0.234 0.294 0.234 0.162 0 0.282 -0.09 0.312 -0.342 l0.084 -0.438 c0.15 -0.054 0.288 -0.072 0.426 -0.072 0.474 0 0.672 0.18 0.672 0.84 v0.264 c-0.252 0.066 -0.528 0.138 -0.762 0.204 -0.828 0.24 -1.116 0.546 -1.116 1.026 0 0.504 0.36 0.786 0.84 0.786 0.444 0 0.702 -0.192 1.05 -0.57 0.048 0.354 0.228 0.564 0.57 0.564 z m-0.582 -0.75 c-0.36 0.336 -0.564 0.438 -0.78 0.438 -0.324 0 -0.534 -0.18 -0.534 -0.552 0 -0.354 0.198 -0.612 0.684 -0.798 0.18 -0.066 0.402 -0.132 0.63 -0.192 z m2.214 -3.264 c0.21 0 0.384 -0.15 0.384 -0.366 0 -0.21 -0.174 -0.366 -0.384 -0.366 s-0.378 0.156 -0.378 0.366 c0 0.216 0.168 0.366 0.378 0.366 z m-0.27 3.93 h1.062 v-0.168 l-0.444 -0.048 -0.012 -1.164 v-0.912 l0.018 -0.864 -0.078 -0.048 -1.062 0.258 v0.15 l0.516 0.03 c0.012 0.3 0.024 0.594 0.024 1.002 v0.384 c0 0.324 -6e-3 0.828 -0.018 1.164 l-0.48 0.048 v0.168 z" aria-label="by @kouhouyoukai" />
</g>
<circle cx="50" cy="50" r="49" fill="none" stroke="#7d8" stroke-width="2" />
</svg>
